<?xml version="1.0" standalone="no"?><!DOCTYPE svg PUBLIC "-//W3C//DTD SVG 1.1//EN" "http://www.w3.org/Graphics/SVG/1.1/DTD/svg11.dtd"><svg t="1562314032389" class="icon" viewBox="0 0 1024 1024" version="1.1" xmlns="http://www.w3.org/2000/svg" p-id="4597" xmlns:xlink="http://www.w3.org/1999/xlink" width="200" height="200"><defs><style type="text/css"></style></defs><path d="M844.867478 281.448465l64.776446-64.776446c9.84094-9.84094 9.84094-25.79568 0-35.633596l-0.712571-0.712571c-9.839932-9.84094-25.793664-9.84094-35.633596 0l-64.762335 64.761327c-72.810257-64.964919-167.069207-106.393825-270.834481-112.351404L537.700939 67.521911l65.032447 0c13.915799 0 25.196999-11.280193 25.196999-25.196999l0-1.00788c0-13.915799-11.2812-25.196999-25.196999-25.196999l-90.229446 0-1.00788 0-90.22743 0c-13.915799 0-25.196999 11.2812-25.196999 25.196999l0 1.00788c0 13.916807 11.2812 25.196999 25.196999 25.196999l65.031439 0L486.300069 132.70554c-103.841873 5.838649-198.190525 47.197003-271.088467 112.128662l-64.507342-64.508349c-9.84094-9.839932-25.79568-9.839932-35.633596 0l-0.712571 0.712571c-9.84094 9.839932-9.84094 25.793664 0 35.633596l64.493231 64.493231C108.503318 360.007669 65.74401 463.994677 65.74401 577.970783c0 246.311754 199.67614 445.985878 445.988902 445.985878 246.310746 0 445.98487-199.674124 445.98487-445.985878C957.717782 464.130741 915.062286 360.255608 844.867478 281.448465zM511.730896 972.554783c-217.923807 0-394.585007-176.661201-394.585007-394.585007 0-99.803298 37.057731-190.947899 98.158438-260.436184 0.058457 0.051402 0.11389 0.107843 0.172347 0.159245 11.28624-12.85047 23.393902-24.960147 36.242356-36.248403-0.044347-0.051402-0.094741-0.09978-0.140095-0.151182 63.515588-55.739794 145.076258-91.414713 234.786646-97.106211 0 0.007055 0 0.015118 0.001008 0.021165 6.359723-0.408191 12.75976-0.667217 19.198098-0.771028 0.011087 0 0.021165 0 0.031244 0 2.099414-0.034268 4.202859-0.050394 6.310336-0.051402 0.434396 0 0.866777 0.007055 1.301173 0.008063 1.396922 0.004032 2.791828 0.015118 4.18371 0.03326 1.146967 0.016126 2.290911 0.039307 3.435863 0.065512 0.605736 0.013102 1.209456 0.027213 1.814184 0.043339 1.428166 0.038299 2.855324 0.081638 4.280466 0.135056 0.061481 0.002016 0.121953 0.005039 0.184442 0.007055 210.79608 8.07715 379.209798 181.515151 379.209798 394.290706C906.315903 795.893582 729.653695 972.554783 511.730896 972.554783z" p-id="4598"></path><path d="M511.730896 225.211787c-194.823198 0-352.757989 157.934791-352.757989 352.757989 0 194.824206 157.934791 352.758997 352.757989 352.758997 194.82219 0 352.757989-157.934791 352.757989-352.758997C864.488885 383.146578 706.553086 225.211787 511.730896 225.211787zM511.730896 879.326894c-166.434243 0-301.35611-134.921868-301.35611-301.35611s134.921868-301.35611 301.35611-301.35611 301.35611 134.921868 301.35611 301.35611S678.165139 879.326894 511.730896 879.326894z" p-id="4599"></path><path d="M734.062162 491.739597c-2.769654-7.076325-8.332144-12.230623-14.928718-14.700937-23.318311-9.786514-50.319415-10.86797-75.726054-0.92221-25.920657 10.143304-45.270945 29.833247-55.609777 53.464001-5.062581 11.578525-14.547739 21.228976-27.246019 26.19984-12.701303 4.968848-26.210926 4.321789-37.791467-0.742808l-0.005039 0.012095c-6.126902-2.822064-13.345339-3.250413-20.123331-0.598681-13.214314 5.174456-19.737313 20.084024-14.562858 33.303378 2.651732 6.775977 7.866503 11.784133 14.096209 14.367329l-0.004032 0.010079c23.633777 10.336817 51.207358 11.65714 77.123983 1.513836s45.269937-29.833247 55.608769-53.465009c5.062581-11.579533 14.547739-21.228976 27.246019-26.198832 12.701303-4.970864 26.211934-4.322797 37.791467 0.7418l0.010079-0.022173c6.000917 2.591259 12.984518 2.909749 19.550856 0.339656C732.712611 519.866503 739.234602 504.957943 734.062162 491.739597z" p-id="4600"></path></svg>