<?xml version="1.0" standalone="no"?><!DOCTYPE svg PUBLIC "-//W3C//DTD SVG 1.1//EN" "http://www.w3.org/Graphics/SVG/1.1/DTD/svg11.dtd"><svg t="1562211773302" class="icon" viewBox="0 0 1243 1024" version="1.1" xmlns="http://www.w3.org/2000/svg" p-id="16487" xmlns:xlink="http://www.w3.org/1999/xlink" width="242.7734375" height="200"><defs><style type="text/css"></style></defs><path d="M365.714286 932.571429l219.428571-109.714286v-179.428572l-219.428571 93.714286v195.428572z m-36.571429-259.428572l230.857143-98.857143-230.857143-98.857143-230.857143 98.857143z m621.714286 259.428572l219.428571-109.714286v-179.428572l-219.428571 93.714286v195.428572z m-36.571429-259.428572l230.857143-98.857143-230.857143-98.857143-230.857143 98.857143zM658.285714 505.714286l219.428572-94.285715V259.428571L658.285714 353.142857v152.571429z m-36.571428-216.571429l252-108-252-108-252 108z m621.714285 296v237.714286q0 20.571429-10.857142 38.285714t-29.714286 26.857143l-256 128q-14.285714 8-32.571429 8t-32.571428-8l-256-128q-2.857143-1.142857-4-2.285714-1.142857 1.142857-4 2.285714l-256 128q-14.285714 8-32.571429 8t-32.571428-8l-256-128q-18.857143-9.142857-29.714286-26.857143t-10.857143-38.285714v-237.714286q0-21.714286 12.285714-40t32.285715-27.428571l248-106.285715V182.857143q0-21.714286 12.285714-40t32.285714-27.428572L593.142857 5.714286q13.142857-5.714286 28.571429-5.714286t28.571428 5.714286l256 109.714285q20 9.142857 32.285715 27.428572t12.285714 40v228.571428l248 106.285715q20.571429 9.142857 32.571428 27.428571t12 40z" p-id="16488"></path></svg>