<?xml version="1.0" standalone="no"?><!DOCTYPE svg PUBLIC "-//W3C//DTD SVG 1.1//EN" "http://www.w3.org/Graphics/SVG/1.1/DTD/svg11.dtd"><svg t="1563263897270" class="icon" viewBox="0 0 1024 1024" version="1.1" xmlns="http://www.w3.org/2000/svg" p-id="10208" xmlns:xlink="http://www.w3.org/1999/xlink" width="200" height="200"><defs><style type="text/css"></style></defs><path d="M881.8688 568.29952 381.62432 568.29952c-15.4624-78.41792-70.71744-136.51968-136.72448-136.51968-77.96736 0-141.16864 80.97792-141.16864 180.89984s63.20128 180.89984 141.16864 180.89984c69.3248 0 126.85312-64.06144 138.79296-148.48l300.29824 0c-1.06496 4.11648-1.81248 8.35584-1.81248 12.8l0 89.07776 34.12992-0.06144L716.30848 704l23.88992 0 0 43.49952 26.03008 0 0-54.59968 23.88992 0 0 54.59968 20.04992 0L810.16832 704l23.88992 0 0 44.77952 40.11008 0.27648 0-91.15648c0-4.44416-0.74752-8.68352-1.81248-12.8l9.49248 0c21.20704 0 38.4-17.18272 38.4-38.4C920.2688 585.50272 903.07584 568.29952 881.8688 568.29952zM244.91008 709.70368c-34.57024 0-62.6176-43.43808-62.6176-97.024s28.03712-97.024 62.6176-97.024c34.58048 0 62.60736 43.43808 62.60736 97.024S279.49056 709.70368 244.91008 709.70368zM562.30912 195.70688c13.63968-0.01024 24.6784 11.03872 24.6784 24.66816l0 246.17984 76.04224-76.04224c9.63584-9.63584 25.26208-9.63584 34.89792 0 9.63584 9.6256 9.63584 25.25184 0 34.88768l-118.15936 118.1696c-9.63584 9.6256-25.26208 9.6256-34.89792 0l-118.15936-118.1696c-4.82304-4.82304-7.2192-11.13088-7.23968-17.44896 0-6.31808 2.41664-12.62592 7.23968-17.43872 9.63584-9.63584 25.26208-9.63584 34.89792 0l76.04224 76.04224L537.6512 220.37504C537.6512 206.7456 548.68992 195.69664 562.30912 195.70688z" p-id="10209"></path></svg>