<?xml version="1.0" standalone="no"?><!DOCTYPE svg PUBLIC "-//W3C//DTD SVG 1.1//EN" "http://www.w3.org/Graphics/SVG/1.1/DTD/svg11.dtd"><svg t="1562482979872" class="icon" viewBox="0 0 1024 1024" version="1.1" xmlns="http://www.w3.org/2000/svg" p-id="2953" xmlns:xlink="http://www.w3.org/1999/xlink" width="200" height="200"><defs><style type="text/css"></style></defs><path d="M851.968 866.304l0-57.344 38.912 0L890.88 538.624 679.936 538.624l-165.888 92.16L348.16 538.624 79.872 538.624l0-57.344L79.872 210.944 79.872 151.552l96.256 0 0 57.344L137.216 208.896l0 270.336L348.16 479.232l165.888-92.16 165.888 92.16 268.288 0 0 57.344 0 270.336 0 57.344L851.968 864.256zM696.32 286.72 331.776 286.72c-20.48 0-38.912-16.384-38.912-38.912L292.864 180.224c0 4.096-2.048 8.192-6.144 10.24l0 0-86.016 55.296c0 0 0 0 0 0l0 0 0 0c-2.048 2.048-4.096 2.048-8.192 2.048-8.192 0-14.336-6.144-14.336-12.288L178.176 126.976c0-6.144 6.144-12.288 14.336-12.288 2.048 0 6.144 0 8.192 2.048l0 0 0 0c0 0 0 0 0 0l86.016 55.296 0 0c4.096 2.048 6.144 6.144 6.144 10.24L292.864 114.688c0-20.48 16.384-38.912 38.912-38.912L696.32 75.776c20.48 0 38.912 16.384 38.912 38.912l0 135.168C735.232 270.336 718.848 286.72 696.32 286.72zM397.312 151.552c-16.384 0-28.672 12.288-28.672 28.672 0 16.384 12.288 28.672 28.672 28.672 16.384 0 28.672-12.288 28.672-28.672C428.032 165.888 413.696 151.552 397.312 151.552zM331.776 731.136 696.32 731.136c20.48 0 38.912 16.384 38.912 38.912l0 67.584c0-4.096 2.048-8.192 6.144-10.24l0 0 86.016-55.296c0 0 0 0 0 0l0 0 0 0c2.048-2.048 4.096-2.048 8.192-2.048 8.192 0 14.336 6.144 14.336 12.288l0 110.592c0 6.144-6.144 12.288-14.336 12.288-2.048 0-6.144 0-8.192-2.048l0 0 0 0c0 0 0 0 0 0l-86.016-55.296 0 0c-4.096-2.048-6.144-6.144-6.144-10.24l0 67.584c0 20.48-16.384 38.912-38.912 38.912L331.776 944.128c-20.48 0-38.912-16.384-38.912-38.912l0-135.168C292.864 747.52 309.248 731.136 331.776 731.136zM630.784 866.304c16.384 0 28.672-12.288 28.672-28.672 0-16.384-12.288-28.672-28.672-28.672-16.384 0-28.672 12.288-28.672 28.672C600.064 854.016 614.4 866.304 630.784 866.304z" p-id="2954"></path></svg>