<?xml version="1.0" standalone="no"?><!DOCTYPE svg PUBLIC "-//W3C//DTD SVG 1.1//EN" "http://www.w3.org/Graphics/SVG/1.1/DTD/svg11.dtd"><svg t="1562211991366" class="icon" viewBox="0 0 1024 1024" version="1.1" xmlns="http://www.w3.org/2000/svg" p-id="22408" xmlns:xlink="http://www.w3.org/1999/xlink" width="200" height="200"><defs><style type="text/css"></style></defs><path d="M73.152 804.576l585.152 0 0-73.152-585.152 0 0 73.152zM73.152 512l585.152 0 0-73.152-585.152 0 0 73.152zM969.152 768q0-22.848-16-38.848t-38.848-16-38.848 16-16 38.848 16 38.848 38.848 16 38.848-16 16-38.848zM73.152 219.424l585.152 0 0-73.152-585.152 0 0 73.152zM969.152 475.424q0-22.848-16-38.848t-38.848-16-38.848 16-16 38.848 16 38.848 38.848 16 38.848-16 16-38.848zM969.152 182.848q0-22.848-16-38.848t-38.848-16-38.848 16-16 38.848 16 38.848 38.848 16 38.848-16 16-38.848zM1024 658.272l0 219.424-1024 0 0-219.424 1024 0zM1024 365.728l0 219.424-1024 0 0-219.424 1024 0zM1024 73.152l0 219.424-1024 0 0-219.424 1024 0z" p-id="22409"></path></svg>