<?xml version="1.0" standalone="no"?><!DOCTYPE svg PUBLIC "-//W3C//DTD SVG 1.1//EN" "http://www.w3.org/Graphics/SVG/1.1/DTD/svg11.dtd"><svg t="1562313887512" class="icon" viewBox="0 0 1024 1024" version="1.1" xmlns="http://www.w3.org/2000/svg" p-id="4047" xmlns:xlink="http://www.w3.org/1999/xlink" width="200" height="200"><defs><style type="text/css"></style></defs><path d="M812.940027 100.497878l0 47.5162c7.232728 10.001795 11.485589 21.742187 11.485589 34.325783 0 36.238342-34.412764 65.591881-76.860529 65.591881-42.467207 0-76.868715-29.356608-76.868715-65.591881 0-12.583596 4.220115-24.325012 11.45489-34.30634L682.151261 100.496855 578.478064 100.496855l0 47.517223c7.227612 9.999748 11.476379 21.741163 11.476379 34.323737 0 36.238342-34.4363 65.592904-76.882018 65.592904-42.445718 0-76.874855-29.357632-76.874855-65.592904 0-12.583596 4.263094-24.325012 11.496845-34.30634L447.694415 100.495832 343.977215 100.495832l0 47.517223c7.231705 9.999748 11.494799 21.741163 11.494799 34.325783 0 36.236296-34.43016 65.591881-76.896344 65.591881-42.450834 0-76.833923-29.357632-76.833923-65.591881 0-12.58462 4.222161-24.327058 11.450796-34.307364L213.192543 100.494809l-71.298859 0 0 649.105634 245.184165 209.152531 495.556493 0L882.634342 100.499925l-69.691245 0L812.940027 100.497878M847.613734 932.49903 464.621946 932.49903c-100.615559 0-52.122101-203.467041-52.122101-203.467041s-232.590336 48.238654-235.589646-42.771129L176.910199 271.062556l670.701488 0L847.611687 932.501076l0.002047 0L847.613734 932.49903M712.940498 473.247394 308.36002 473.247394l0 48.677653 404.580478 0L712.940498 473.247394M712.940498 365.515764 308.36002 365.515764l0 48.665373 404.580478 0L712.940498 365.515764M712.940498 580.976978 308.36002 580.976978l0 48.677653 404.580478 0L712.940498 580.976978M747.56304 220.560348c21.125133 0 38.275745-14.620999 38.275745-32.628118L785.838785 96.706529c0-18.008142-17.147542-32.630165-38.275745-32.630165-21.149693 0-38.269605 14.623046-38.269605 32.630165l0 91.222631C709.294458 205.941396 726.414371 220.560348 747.56304 220.560348L747.56304 220.560348zM278.599206 220.560348c21.128203 0 38.244023-14.620999 38.244023-32.628118L316.843228 96.706529c0-18.008142-17.119913-32.630165-38.244023-32.630165-21.149693 0-38.275745 14.623046-38.275745 32.630165l0 91.222631C240.327554 205.941396 257.449513 220.560348 278.599206 220.560348L278.599206 220.560348zM513.068332 220.560348c21.150716 0 38.269605-14.620999 38.269605-32.628118L551.337937 96.706529c0-18.008142-17.121959-32.630165-38.269605-32.630165-21.128203 0-38.275745 14.623046-38.275745 32.630165l0 91.222631C474.792587 205.941396 491.940129 220.560348 513.068332 220.560348" p-id="4048"></path></svg>