<?xml version="1.0" standalone="no"?><!DOCTYPE svg PUBLIC "-//W3C//DTD SVG 1.1//EN" "http://www.w3.org/Graphics/SVG/1.1/DTD/svg11.dtd"><svg t="1562479835664" class="icon" viewBox="0 0 1024 1024" version="1.1" xmlns="http://www.w3.org/2000/svg" p-id="1897" xmlns:xlink="http://www.w3.org/1999/xlink" width="200" height="200"><defs><style type="text/css"></style></defs><path d="M928 704H96a32 32 0 0 0-32 32v192a32 32 0 0 0 32 32h832a32 32 0 0 0 32-32v-192a32 32 0 0 0-32-32zM224 864H160v-64h64z m304 16h-32v-32h32z m0-64h-32v-32h32z m64 64h-32v-32h32z m0-64h-32v-32h32z m64 64h-32v-32h32z m0-64h-32v-32h32z m64 64h-32v-32h32z m0-64h-32v-32h32z m64 64h-32v-32h32z m0-64h-32v-32h32z m64 64h-32v-32h32z m0-64h-32v-32h32z" fill="" p-id="1898"></path><path d="M672 160v192h-96v32h96a32 32 0 0 0 32-32V160z" fill="" p-id="1899"></path><path d="M544 480h-64v-96h64v-32h-64V288h-32v64h-96V288h-32v64a32 32 0 0 0 32 32h96v96a32 32 0 0 0 32 32h64z" fill="" p-id="1900"></path><path d="M800 128h-96V32a32 32 0 0 0-32-32H352a32 32 0 0 0-32 32v224H224a32 32 0 0 0-32 32v320a32 32 0 0 0 32 32h320a32 32 0 0 0 32-32v-96h224a32 32 0 0 0 32-32V160a32 32 0 0 0-32-32zM352 32h320v96h-192a32 32 0 0 0-32 32v96h-96z m192 576H224V288h320z m256-128h-224V288a32 32 0 0 0-32-32h-64V160h320z" fill="" p-id="1901"></path><path d="M224 288h320v320H224z" fill="" p-id="1902"></path><path d="M480 160v96h64a32 32 0 0 1 32 32v192h224V160z" fill="" p-id="1903"></path><path d="M352 32v224h96V160a32 32 0 0 1 32-32h192V32z" fill="" p-id="1904"></path></svg>